<svg xmlns="http://www.w3.org/2000/svg" xmlns:xlink="http://www.w3.org/1999/xlink" width="28" height="28" version="1.1" viewBox="0 0 28 28"><title>矩形</title><defs><path id="path-1" d="M261.5,0 C270.336556,-1.623249e-15 277.5,7.163444 277.5,16 L277.5,334.5 L277.5,334.5 C270.872583,334.5 265.5,339.872583 265.5,346.5 C265.5,353.127417 270.872583,358.5 277.5,358.5 L277.5,507 C277.5,515.836556 270.336556,523 261.5,523 L16,523 C7.163444,523 1.082166e-15,515.836556 0,507 L0,358 L0,358 C6.627417,358 12,352.627417 12,346 C12,339.372583 6.627417,334 0,334 L0,16 C-1.082166e-15,7.163444 7.163444,1.623249e-15 16,0 L261.5,0 Z"/><filter id="filter-3" width="117.3%" height="109.2%" x="-8.6%" y="-2.7%" filterUnits="objectBoundingBox"><feMorphology in="SourceAlpha" operator="erode" radius="1.5" result="shadowSpreadOuter1"/><feOffset dx="0" dy="10" in="shadowSpreadOuter1" result="shadowOffsetOuter1"/><feGaussianBlur in="shadowOffsetOuter1" result="shadowBlurOuter1" stdDeviation="7.5"/><feColorMatrix in="shadowBlurOuter1" result="shadowMatrixOuter1" type="matrix" values="0 0 0 0 0 0 0 0 0 0 0 0 0 0 0 0 0 0 0.03 0"/><feMorphology in="SourceAlpha" operator="erode" radius="1" result="shadowSpreadOuter2"/><feOffset dx="0" dy="4" in="shadowSpreadOuter2" result="shadowOffsetOuter2"/><feGaussianBlur in="shadowOffsetOuter2" result="shadowBlurOuter2" stdDeviation="3"/><feColorMatrix in="shadowBlurOuter2" result="shadowMatrixOuter2" type="matrix" values="0 0 0 0 0 0 0 0 0 0 0 0 0 0 0 0 0 0 0.01 0"/><feMerge><feMergeNode in="shadowMatrixOuter1"/><feMergeNode in="shadowMatrixOuter2"/></feMerge></filter></defs><g id="页面-1" fill="none" fill-rule="evenodd" stroke="none" stroke-width="1"><g id="Pool" transform="translate(-983.000000, -1936.000000)"><rect width="1680" height="2191" x="0" y="0" fill="#F7F7F7"/><g id="NFT" transform="translate(384.000000, 1049.000000)"><g id="7" transform="translate(615.000000, 555.000000)"><mask id="mask-2" fill="#fff"><use xlink:href="#path-1"/></mask><g id="Mask"><use fill="#000" fill-opacity="1" filter="url(#filter-3)" xlink:href="#path-1"/><use fill="#FFF" fill-rule="evenodd" xlink:href="#path-1"/></g></g></g></g></g></svg>